<svg width="24" height="24" viewBox="0 0 24 24" fill="none" xmlns="http://www.w3.org/2000/svg">
<path d="M12 24C10.1435 24 8.36301 23.2625 7.05025 21.9497C5.7375 20.637 5 18.8565 5 17C5 15.1435 5.7375 13.363 7.05025 12.0503C8.36301 10.7375 10.1435 10 12 10C13.8565 10 15.637 10.7375 16.9497 12.0503C18.2625 13.363 19 15.1435 19 17C19 18.8565 18.2625 20.637 16.9497 21.9497C15.637 23.2625 13.8565 24 12 24ZM12 0L0 9.5L4.838 13.44C5.50046 12.1068 6.52176 10.985 7.78703 10.2006C9.05229 9.4162 10.5113 9.00042 12 9C13.4887 9.00042 14.9477 9.4162 16.213 10.2006C17.4782 10.985 18.4995 12.1068 19.162 13.44L24 9.5L12 0Z" fill="white"/>
</svg>
